<svg xmlns="http://www.w3.org/2000/svg" viewBox="0 0 666 100"><path fill="#FFF" d="M-1-1h582v102H-1V-1z"/><path fill="#FFF800" d="M19.5 13.7H48v12.4h-6.5v28.3c0 2.6.3 4.8.9 6.6.6 1.8 1.5 3.3 2.6 4.4 1.1 1.1 2.4 2 3.9 2.5s3.1.8 4.9.8c1.8 0 3.5-.2 5-.7 1.5-.4 2.8-1.2 3.9-2.3 1.1-1.1 1.9-2.6 2.5-4.4.6-1.8.9-4.1.9-6.9V26.1h-7.5V13.7H87v12.4h-5.7v26.5c0 4.8-.7 9.1-2.2 12.8-1.4 3.7-3.4 6.9-5.9 9.5-2.5 2.6-5.5 4.5-8.9 5.9-3.4 1.3-7 2-10.9 2-3.8 0-7.4-.7-10.8-2-3.3-1.3-6.3-3.3-8.7-5.8-2.5-2.5-4.4-5.6-5.9-9.2-1.4-3.6-2.2-7.7-2.2-12.3V26.1h-6.4V13.7z"/><path fill="#0F0F00" d="M140.4 13.7h27v12.4h-5.8v55.8H146l-29.6-44.1v31.8h5.9v12.3H95.6V69.6h5.9V26.1h-5.8V13.7h21.5l29.4 44.7V26.1h-6V13.7zM175.1 13.7h30.4V26H198v43.5h7.5v12.3h-30.4V69.6h7.4V26.1h-7.4V13.7zM213 69.6h6.6V26.1H213V13.7h29.2l20.9 49.2 19.4-49.2h29.6v12.4h-6.6v43.5h6.5v12.3h-26.6V69.6h4.9V30.4L269 81.1h-13.2l-21.6-49.4v37.9h5.3v12.3H213V69.6zM322.9 13.7h30.4V26h-7.5v43.5h7.5v12.3h-30.4V69.6h7.4V26.1h-7.4V13.7zM405.7 13.7h27v12.4h-5.8v55.8h-15.6l-29.6-44.1v31.8h5.9v12.3h-26.9V69.6h5.9V26.1h-5.8V13.7h21.5l29.4 44.7V26.1h-6V13.7zM437.4 13.7h28.5v12.4h-6.5v28.3c0 2.6.3 4.8.9 6.6.6 1.8 1.5 3.3 2.6 4.4 1.1 1.1 2.4 2 3.9 2.5s3.1.8 4.9.8c1.8 0 3.5-.2 5-.7 1.5-.4 2.8-1.2 3.9-2.3 1.1-1.1 1.9-2.6 2.5-4.4.6-1.8.9-4.1.9-6.9V26.1h-7.5V13.7H505v12.4h-5.7v26.5c0 4.8-.7 9.1-2.2 12.8s-3.4 6.9-5.9 9.5c-2.5 2.6-5.5 4.5-8.9 5.9s-7 2-10.9 2c-3.8 0-7.4-.7-10.8-2-3.3-1.3-6.3-3.3-8.7-5.8-2.5-2.5-4.4-5.6-5.9-9.2-1.4-3.6-2.2-7.7-2.2-12.3V26.1h-6.4V13.7zM525.6 69.6h7.4V25.7h-8.6v8.8h-15.3V13.7h64.6v20.7h-15.4v-8.8h-9.8v43.9h7.5v12.3h-30.4V69.6zM612.6 83.1c-3.2 0-6.3-.4-9.2-1.3s-5.7-2-8.2-3.6-4.9-3.4-6.9-5.5-3.8-4.5-5.3-7.2c-1.5-2.6-2.6-5.4-3.4-8.4-.8-3-1.2-6.1-1.2-9.4 0-3.3.4-6.4 1.2-9.4.8-3 2-5.8 3.4-8.5 1.5-2.6 3.2-5 5.3-7.2 2.1-2.1 4.4-4 6.9-5.5s5.3-2.7 8.2-3.6c2.9-.8 6-1.3 9.2-1.3 3.2 0 6.3.4 9.3 1.3 3 .8 5.7 2 8.2 3.6 2.5 1.5 4.9 3.4 6.9 5.5 2.1 2.1 3.9 4.5 5.3 7.2 1.5 2.6 2.6 5.4 3.4 8.5.8 3 1.2 6.2 1.2 9.4s-.4 6.4-1.2 9.4c-.8 3-2 5.8-3.4 8.5-1.5 2.6-3.3 5-5.3 7.2-2.1 2.1-4.4 4-6.9 5.5s-5.3 2.7-8.2 3.6-6.1 1.2-9.3 1.2zm0-14.1c2.7 0 5.2-.6 7.5-1.7s4.2-2.7 5.8-4.6c1.6-1.9 2.9-4.2 3.8-6.7s1.3-5.3 1.3-8.2c0-2.9-.5-5.7-1.4-8.2-.9-2.6-2.2-4.8-3.8-6.8s-3.6-3.5-5.8-4.6-4.7-1.7-7.4-1.7-5.2.6-7.4 1.7-4.2 2.7-5.8 4.6c-1.6 1.9-2.9 4.2-3.8 6.8-.9 2.6-1.4 5.3-1.4 8.2 0 2.9.5 5.6 1.4 8.2.9 2.6 2.2 4.8 3.8 6.7 1.6 1.9 3.6 3.5 5.8 4.6 2.2 1.1 4.7 1.7 7.4 1.7z"/></svg>